<svg width="256" height="256" viewBox="0 0 256 256" fill="none" xmlns="http://www.w3.org/2000/svg">
<rect width="256" height="256" fill="#495057"/>
<path d="M179 192H86V12H107V172.921H179V192Z" fill="white"/>
<path d="M158 191.572C158 210.38 154.101 223.819 146.302 231.892C138.503 239.964 128.356 244 115.862 244C107.727 244 100.474 242.502 94.1006 239.506C87.8113 236.51 82.4444 232.1 78 226.274L93.4717 212.543C96.1551 216.455 99.1321 219.45 102.403 221.531C105.673 223.528 109.698 224.527 114.478 224.527C121.857 224.527 127.434 222.155 131.208 217.412C134.981 212.585 136.868 204.055 136.868 191.822V62H158V191.572Z" fill="white"/>
</svg>
